HIERARCHY
ROOT Hips
{
	OFFSET 0.000000 0.000000 0.000000
	CHANNELS 6 Xposition Yposition Zposition Xrotation Yrotation Zrotation
	JOINT LeftUpLeg_virtual
	{
		OFFSET 0.000000 0.000000 0.000000
		CHANNELS 3 Xrotation Yrotation Zrotation
		JOINT LeftUpLeg
		{
			OFFSET 15.427100 -6.655098 0.678600
			CHANNELS 3 Xrotation Yrotation Zrotation
			JOINT LeftLeg
			{
				OFFSET 4.081073 -39.591068 13.024000
				CHANNELS 3 Xrotation Yrotation Zrotation
				JOINT LeftFoot
				{
					OFFSET -4.081074 -37.707932 -15.979700
					CHANNELS 3 Xrotation Yrotation Zrotation
					JOINT LeftToeBase
					{
						OFFSET 5.346399 -15.068900 20.645000
						CHANNELS 3 Xrotation Yrotation Zrotation
						JOINT LeftToe_End
						{
							OFFSET 2.754700 0.931300 11.300900
							CHANNELS 3 Xrotation Yrotation Zrotation
							End Site
							{
								OFFSET 0 0 0
							}
						}
					}
				}
			}
		}
	}
	JOINT RightUpLeg_virtual
	{
		OFFSET 0.000000 0.000000 0.000000
		CHANNELS 3 Xrotation Yrotation Zrotation
		JOINT RightUpLeg
		{
			OFFSET -15.569500 -6.655098 0.678600
			CHANNELS 3 Xrotation Yrotation Zrotation
			JOINT RightLeg
			{
				OFFSET -4.081825 -39.591045 13.023800
				CHANNELS 3 Xrotation Yrotation Zrotation
				JOINT RightFoot
				{
					OFFSET 4.081824 -37.707954 -15.979600
					CHANNELS 3 Xrotation Yrotation Zrotation
					JOINT RightToeBase
					{
						OFFSET -5.346400 -15.068900 20.645000
						CHANNELS 3 Xrotation Yrotation Zrotation
						JOINT RightToe_End
						{
							OFFSET -2.754700 0.931300 11.300900
							CHANNELS 3 Xrotation Yrotation Zrotation
							End Site
							{
								OFFSET 0 0 0
							}
						}
					}
				}
			}
		}
	}
	JOINT Spine_virtual
	{
		OFFSET 0.000000 0.000000 0.000000
		CHANNELS 3 Xrotation Yrotation Zrotation
		JOINT Spine
		{
			OFFSET -0.279200 12.230698 -2.892100
			CHANNELS 3 Xrotation Yrotation Zrotation
			JOINT Spine1
			{
				OFFSET -0.232667 10.192268 -1.242267
				CHANNELS 3 Xrotation Yrotation Zrotation
				JOINT Spine1_split
				{
					OFFSET -0.232667 10.192268 -1.242267
					CHANNELS 3 Xrotation Yrotation Zrotation
					JOINT Spine2
					{
						OFFSET -0.232667 10.192268 -1.242267
						CHANNELS 3 Xrotation Yrotation Zrotation
						JOINT Neck_virtual
						{
							OFFSET 0.000000 0.000000 0.000000
							CHANNELS 3 Xrotation Yrotation Zrotation
							JOINT Neck
							{
								OFFSET -0.418800 17.814194 8.416900
								CHANNELS 3 Xrotation Yrotation Zrotation
								JOINT Head
								{
									OFFSET 0.000000 7.031097 3.806800
									CHANNELS 3 Xrotation Yrotation Zrotation
									JOINT HeadTop_End
									{
										OFFSET 0.000000 24.646606 12.978600
										CHANNELS 3 Xrotation Yrotation Zrotation
										End Site
										{
											OFFSET 0 0 0
										}
									}
								}
							}
						}
						JOINT LeftShoulder_virtual
						{
							OFFSET 0.000000 0.000000 0.000000
							CHANNELS 3 Xrotation Yrotation Zrotation
							JOINT LeftShoulder
							{
								OFFSET 8.476499 7.247704 -3.868750
								CHANNELS 3 Xrotation Yrotation Zrotation
								JOINT LeftShoulder_split
								{
									OFFSET 8.476499 7.247704 -3.868750
									CHANNELS 3 Xrotation Yrotation Zrotation
									JOINT LeftArm
									{
										OFFSET 9.308998 -2.777710 0.208600
										CHANNELS 3 Xrotation Yrotation Zrotation
										JOINT LeftForeArm
										{
											OFFSET 29.972298 0.000000 0.000000
											CHANNELS 3 Xrotation Yrotation Zrotation
											JOINT LeftHand
											{
												OFFSET 26.026505 0.000000 0.000000
												CHANNELS 3 Xrotation Yrotation Zrotation
												End Site
												{
													OFFSET 0 0 0
												}
											}
										}
									}
								}
							}
						}
						JOINT RightShoulder_virtual
						{
							OFFSET 0.000000 0.000000 0.000000
							CHANNELS 3 Xrotation Yrotation Zrotation
							JOINT RightShoulder
							{
								OFFSET -7.570500 7.247704 -3.868750
								CHANNELS 3 Xrotation Yrotation Zrotation
								JOINT RightShoulder_split
								{
									OFFSET -7.570500 7.247704 -3.868750
									CHANNELS 3 Xrotation Yrotation Zrotation
									JOINT RightArm
									{
										OFFSET -9.308998 -2.777710 0.208500
										CHANNELS 3 Xrotation Yrotation Zrotation
										JOINT RightForeArm
										{
											OFFSET -29.972300 0.000000 0.000000
											CHANNELS 3 Xrotation Yrotation Zrotation
											JOINT RightHand
											{
												OFFSET -26.026505 0.000000 0.000000
												CHANNELS 3 Xrotation Yrotation Zrotation
												End Site
												{
													OFFSET 0 0 0
												}
											}
										}
									}
								}
							}
						}
					}
				}
			}
		}
	}
}
MOTION
Frames: 7
Frame Time: 0.03333333
0.699175 68.732819 -0.716915 0.000000 0.000000 0.000000 11.625583 6.201440 -1.409345 -49.648795 1.925121 4.013529 70.100909 7.236118 0.188570 -29.738063 7.824183 -7.041896 -3.252718 -0.381260 0.420831 0.000000 0.000000 0.000000 12.064219 5.133297 -1.238896 -45.515838 -11.336887 -6.589115 72.601154 -5.620046 -2.924294 -34.001798 -10.665885 5.739182 2.771548 0.904653 -0.272558 0.000000 0.000000 0.000000 11.934899 3.273681 -0.992595 9.300478 1.367705 1.820534 8.782554 1.922045 -0.467232 0.867560 -0.710036 0.367999 0.000000 0.000000 0.000000 9.042833 0.856205 0.108799 -10.247948 -1.323475 6.150022 -25.738560 1.581842 -7.149214 0.000000 0.000000 0.000000 9.143014 0.528221 -0.002487 3.358584 -24.569307 3.908111 -2.556145 0.436770 -3.289911 -62.457155 -24.841403 -65.119502 177.351736 -72.487500 175.582047 0.000000 0.000000 0.000000 8.248595 0.595449 0.227675 0.019314 12.073958 10.775323 0.684881 6.641473 0.374041 -63.367333 31.555529 50.818820 -179.014996 70.473441 178.211616 0.000000 0.000000 0.000000 
0.695275 68.727303 -0.717636 0.000000 0.000000 0.000000 11.603687 6.183555 -1.399182 -49.644137 1.939239 4.023525 70.119965 7.231955 0.192117 -29.740139 7.833644 -7.058329 -3.262086 -0.382327 0.418522 0.000000 0.000000 0.000000 12.042464 5.112087 -1.229235 -45.512310 -11.329842 -6.582986 72.605935 -5.611116 -2.930059 -34.007263 -10.665620 5.727383 2.766229 0.903745 -0.273108 0.000000 0.000000 0.000000 11.919380 3.259171 -0.987345 9.301354 1.351933 1.831038 8.801283 1.905526 -0.461228 0.864648 -0.708345 0.367442 0.000000 0.000000 0.000000 9.062624 0.837370 0.114373 -10.250253 -1.302756 6.132945 -25.754094 1.651288 -7.168159 0.000000 0.000000 0.000000 9.166214 0.511205 0.003078 3.358404 -24.578876 3.906630 -2.558085 0.453454 -3.268195 -62.477182 -24.787581 -65.138046 177.347474 -72.529833 175.593358 0.000000 0.000000 0.000000 8.272460 0.577963 0.232381 0.013528 12.118549 10.746524 0.668680 6.626680 0.365853 -63.391949 31.517327 50.800905 -179.034216 70.532119 178.238144 0.000000 0.000000 0.000000 
0.691912 68.719284 -0.718601 0.000000 0.000000 0.000000 11.579396 6.171146 -1.394502 -49.642986 1.947738 4.035178 70.144629 7.228855 0.197876 -29.743657 7.845569 -7.069532 -3.276076 -0.382853 0.413162 0.000000 0.000000 0.000000 12.020155 5.091319 -1.223751 -45.507781 -11.326691 -6.572655 72.613920 -5.604511 -2.934925 -34.014933 -10.663992 5.711907 2.763945 0.903134 -0.273276 0.000000 0.000000 0.000000 11.901769 3.241679 -0.983814 9.303985 1.340152 1.841863 8.816464 1.893284 -0.455372 0.855802 -0.699107 0.365519 0.000000 0.000000 0.000000 9.074930 0.822546 0.119735 -10.248420 -1.283607 6.118437 -25.758921 1.709524 -7.180780 0.000000 0.000000 0.000000 9.186551 0.497002 0.009154 3.357684 -24.583220 3.900479 -2.572837 0.457747 -3.255609 -62.514618 -24.727018 -65.140375 177.344783 -72.579885 175.604423 0.000000 0.000000 0.000000 8.290911 0.563612 0.237759 0.007613 12.159056 10.719592 0.657517 6.616896 0.363834 -63.442260 31.459015 50.808333 -179.035610 70.590770 178.242351 0.000000 0.000000 0.000000 
0.688829 68.708954 -0.718739 0.000000 0.000000 0.000000 11.554120 6.162421 -1.391326 -49.640842 1.950595 4.040371 70.169436 7.227864 0.205694 -29.750084 7.860819 -7.077750 -3.290098 -0.382854 0.406125 0.000000 0.000000 0.000000 11.996056 5.070978 -1.218509 -45.501580 -11.326274 -6.562923 72.627218 -5.599042 -2.939962 -34.022934 -10.660815 5.698738 2.762466 0.903023 -0.273563 0.000000 0.000000 0.000000 11.880734 3.219939 -0.977297 9.306519 1.331977 1.850742 8.826448 1.885243 -0.449919 0.843455 -0.689229 0.365198 0.000000 0.000000 0.000000 9.081849 0.813075 0.124544 -10.236805 -1.268945 6.104508 -25.759466 1.741315 -7.184796 0.000000 0.000000 0.000000 9.202299 0.487015 0.015683 3.356043 -24.578801 3.896360 -2.589205 0.444574 -3.257861 -62.555531 -24.678030 -65.118559 177.349304 -72.574489 175.617182 0.000000 0.000000 0.000000 8.302728 0.553832 0.243403 0.002100 12.188240 10.690458 0.656312 6.619503 0.373357 -63.501239 31.392601 50.850219 -179.029107 70.595783 178.235863 0.000000 0.000000 0.000000 
0.685466 68.697716 -0.716316 0.000000 0.000000 0.000000 11.529310 6.155190 -1.385807 -49.632840 1.950231 4.034985 70.189237 7.229125 0.215114 -29.758195 7.878398 -7.085902 -3.301717 -0.382799 0.400987 0.000000 0.000000 0.000000 11.970492 5.053304 -1.210378 -45.493752 -11.326861 -6.557688 72.645229 -5.593144 -2.947169 -34.031319 -10.656342 5.693479 2.759938 0.903523 -0.274105 0.000000 0.000000 0.000000 11.856762 3.197170 -0.966530 9.307693 1.326081 1.855102 8.831384 1.880930 -0.445554 0.837165 -0.678267 0.365075 0.000000 0.000000 0.000000 9.084683 0.809234 0.128821 -10.217225 -1.260988 6.090117 -25.762032 1.741995 -7.180258 0.000000 0.000000 0.000000 9.212420 0.481964 0.022340 3.354635 -24.568289 3.898993 -2.599082 0.423671 -3.269839 -62.580604 -24.652077 -65.071117 177.356025 -72.494194 175.623957 0.000000 0.000000 0.000000 8.308047 0.548622 0.248623 -0.002109 12.204908 10.659652 0.660059 6.625780 0.390247 -63.557198 31.336153 50.918948 -179.018589 70.537283 178.224948 0.000000 0.000000 0.000000 
0.682268 68.686714 -0.713161 0.000000 0.000000 0.000000 11.507134 6.146529 -1.375984 -49.617725 1.948849 4.018965 70.202754 7.232457 0.224638 -29.764971 7.896780 -7.095576 -3.307568 -0.382896 0.398709 0.000000 0.000000 0.000000 11.945069 5.038592 -1.198320 -45.483725 -11.326674 -6.558164 72.665426 -5.587157 -2.957516 -34.042131 -10.651430 5.695889 2.757003 0.904503 -0.274718 0.000000 0.000000 0.000000 11.832585 3.178030 -0.952150 9.308548 1.321325 1.854665 8.832511 1.879318 -0.442637 0.836953 -0.667479 0.362785 0.000000 0.000000 0.000000 9.086049 0.810322 0.132244 -10.194848 -1.260546 6.077895 -25.774182 1.714025 -7.171851 0.000000 0.000000 0.000000 9.217374 0.481344 0.027488 3.353476 -24.558114 3.907853 -2.594664 0.409767 -3.285345 -62.580003 -24.645302 -65.005636 177.364945 -72.365069 175.624149 0.000000 0.000000 0.000000 8.309051 0.548432 0.252598 -0.005544 12.210604 10.628495 0.677121 6.636982 0.404910 -63.605119 31.302771 50.996105 -179.010830 70.451434 178.216916 0.000000 0.000000 0.000000 
0.678722 68.677551 -0.708820 0.000000 0.000000 0.000000 11.488143 6.136989 -1.362191 -49.599253 1.948573 3.996360 70.212330 7.237237 0.233350 -29.768300 7.914240 -7.106757 -3.306185 -0.382664 0.397731 0.000000 0.000000 0.000000 11.922315 5.029082 -1.183485 -45.472053 -11.325866 -6.563356 72.686825 -5.583185 -2.970211 -34.057335 -10.647530 5.700015 2.755755 0.905776 -0.274508 0.000000 0.000000 0.000000 11.810907 3.165388 -0.936506 9.310018 1.317093 1.850519 8.830798 1.879724 -0.441209 0.845487 -0.660983 0.361548 0.000000 0.000000 0.000000 9.087308 0.814135 0.134329 -10.178260 -1.266792 6.070384 -25.797129 1.670073 -7.163884 0.000000 0.000000 0.000000 9.219308 0.483582 0.029942 3.353029 -24.551004 3.921673 -2.573909 0.408329 -3.296105 -62.566404 -24.648206 -64.939567 177.368647 -72.234626 175.614805 0.000000 0.000000 0.000000 8.308953 0.552217 0.254349 -0.008254 12.210331 10.602554 0.699070 6.644681 0.405187 -63.650642 31.303508 51.061531 -179.004327 70.391069 178.209211 0.000000 0.000000 0.000000 
